<mxfile host="app.diagrams.net" modified="2023-10-10T18:35:26.779Z" agent="Mozilla/5.0 (Windows NT 10.0; Win64; x64) AppleWebKit/537.36 (KHTML, like Gecko) Chrome/117.0.0.0 Safari/537.36" etag="WcULdVfOZRjWOAadhFpf" version="22.0.4" type="github" pages="2">
  <diagram name="Use Case Diagram" id="uF8d6Z5YZQ0IH_8VUQmD">
    <mxGraphModel dx="1290" dy="662" grid="1" gridSize="10" guides="1" tooltips="1" connect="1" arrows="1" fold="1" page="1" pageScale="1" pageWidth="827" pageHeight="1169" math="0" shadow="0">
      <root>
        <mxCell id="0" />
        <mxCell id="1" parent="0" />
        <mxCell id="lB7tE4sDJ6YOISGpc0Tp-2" value="Guest" style="shape=umlActor;verticalLabelPosition=bottom;verticalAlign=top;html=1;outlineConnect=0;fillColor=none;labelBorderColor=none;rounded=0;fontColor=default;labelBackgroundColor=none;" parent="1" vertex="1">
          <mxGeometry x="60" y="470" width="30" height="60" as="geometry" />
        </mxCell>
        <mxCell id="lB7tE4sDJ6YOISGpc0Tp-3" value="&lt;br&gt;&lt;br&gt;&lt;br&gt;&lt;br&gt;&lt;br&gt;&lt;br&gt;&lt;br&gt;&lt;br&gt;&lt;br&gt;&lt;br&gt;&lt;br&gt;&lt;br&gt;&lt;br&gt;&lt;br&gt;&lt;br&gt;&lt;br&gt;&lt;br&gt;&lt;br&gt;&lt;br&gt;&lt;br&gt;&lt;br&gt;&lt;br&gt;&lt;br&gt;&lt;br&gt;&lt;br&gt;&lt;br&gt;&lt;br&gt;&lt;br&gt;&lt;br&gt;&lt;br&gt;&lt;br&gt;&lt;br&gt;&lt;br&gt;&lt;br&gt;&lt;br&gt;&lt;br&gt;&lt;br&gt;&lt;br&gt;&lt;br&gt;&lt;br&gt;&lt;br&gt;Hotel Resore System" style="rounded=0;whiteSpace=wrap;html=1;fillColor=none;align=left;labelBorderColor=none;fontColor=default;labelBackgroundColor=none;" parent="1" vertex="1">
          <mxGeometry x="240" y="260" width="400" height="610" as="geometry" />
        </mxCell>
        <mxCell id="lB7tE4sDJ6YOISGpc0Tp-4" value="Family Member Adding" style="ellipse;whiteSpace=wrap;html=1;fillColor=none;labelBorderColor=none;rounded=0;fontColor=default;labelBackgroundColor=none;" parent="1" vertex="1">
          <mxGeometry x="310" y="460" width="120" height="80" as="geometry" />
        </mxCell>
        <mxCell id="lB7tE4sDJ6YOISGpc0Tp-12" value="" style="endArrow=none;html=1;rounded=0;entryX=0;entryY=0.5;entryDx=0;entryDy=0;exitX=0.5;exitY=0.5;exitDx=0;exitDy=0;exitPerimeter=0;labelBorderColor=none;fontColor=default;labelBackgroundColor=none;" parent="1" source="lB7tE4sDJ6YOISGpc0Tp-2" target="lB7tE4sDJ6YOISGpc0Tp-4" edge="1">
          <mxGeometry width="50" height="50" relative="1" as="geometry">
            <mxPoint x="360" y="270" as="sourcePoint" />
            <mxPoint x="410" y="220" as="targetPoint" />
          </mxGeometry>
        </mxCell>
        <mxCell id="lB7tE4sDJ6YOISGpc0Tp-13" value="Validate User" style="ellipse;whiteSpace=wrap;html=1;fillColor=none;labelBorderColor=none;rounded=0;fontColor=default;labelBackgroundColor=none;" parent="1" vertex="1">
          <mxGeometry x="510" y="280" width="120" height="80" as="geometry" />
        </mxCell>
        <mxCell id="lB7tE4sDJ6YOISGpc0Tp-15" value="&lt;div&gt;User Account Delete&lt;/div&gt;" style="ellipse;whiteSpace=wrap;html=1;fillColor=none;labelBorderColor=none;rounded=0;fontColor=default;labelBackgroundColor=none;" parent="1" vertex="1">
          <mxGeometry x="310" y="570" width="120" height="80" as="geometry" />
        </mxCell>
        <mxCell id="lB7tE4sDJ6YOISGpc0Tp-16" value="&lt;div&gt;Book Reservation History Checking&lt;/div&gt;" style="ellipse;whiteSpace=wrap;html=1;fillColor=none;labelBorderColor=none;rounded=0;fontColor=default;labelBackgroundColor=none;" parent="1" vertex="1">
          <mxGeometry x="310" y="670" width="120" height="80" as="geometry" />
        </mxCell>
        <mxCell id="lB7tE4sDJ6YOISGpc0Tp-17" value="&lt;div&gt;Points &amp;amp; Promotion&lt;/div&gt;" style="ellipse;whiteSpace=wrap;html=1;fillColor=none;labelBorderColor=none;rounded=0;fontColor=default;labelBackgroundColor=none;" parent="1" vertex="1">
          <mxGeometry x="310" y="770" width="120" height="80" as="geometry" />
        </mxCell>
        <mxCell id="lB7tE4sDJ6YOISGpc0Tp-22" value="" style="endArrow=classic;html=1;rounded=0;entryX=0;entryY=1;entryDx=0;entryDy=0;exitX=1;exitY=0;exitDx=0;exitDy=0;dashed=1;strokeWidth=2;labelBorderColor=none;fontColor=default;labelBackgroundColor=none;" parent="1" source="lB7tE4sDJ6YOISGpc0Tp-4" target="lB7tE4sDJ6YOISGpc0Tp-13" edge="1">
          <mxGeometry width="50" height="50" relative="1" as="geometry">
            <mxPoint x="410" y="480" as="sourcePoint" />
            <mxPoint x="460" y="420" as="targetPoint" />
          </mxGeometry>
        </mxCell>
        <mxCell id="lB7tE4sDJ6YOISGpc0Tp-46" value="&lt;font style=&quot;font-size: 20px;&quot;&gt;&amp;lt;&amp;lt;Include&amp;gt;&amp;gt;&lt;/font&gt;" style="edgeLabel;html=1;align=center;verticalAlign=middle;resizable=0;points=[];labelBorderColor=none;rounded=0;fontColor=default;labelBackgroundColor=none;" parent="lB7tE4sDJ6YOISGpc0Tp-22" vertex="1" connectable="0">
          <mxGeometry x="-0.3273" y="-1" relative="1" as="geometry">
            <mxPoint as="offset" />
          </mxGeometry>
        </mxCell>
        <mxCell id="lB7tE4sDJ6YOISGpc0Tp-23" value="" style="endArrow=classic;html=1;rounded=0;entryX=0;entryY=1;entryDx=0;entryDy=0;exitX=1;exitY=0;exitDx=0;exitDy=0;dashed=1;strokeWidth=2;labelBorderColor=none;fontColor=default;labelBackgroundColor=none;" parent="1" source="lB7tE4sDJ6YOISGpc0Tp-15" target="lB7tE4sDJ6YOISGpc0Tp-13" edge="1">
          <mxGeometry width="50" height="50" relative="1" as="geometry">
            <mxPoint x="422" y="482" as="sourcePoint" />
            <mxPoint x="538" y="-222" as="targetPoint" />
          </mxGeometry>
        </mxCell>
        <mxCell id="lB7tE4sDJ6YOISGpc0Tp-24" value="" style="endArrow=classic;html=1;rounded=0;entryX=0;entryY=1;entryDx=0;entryDy=0;exitX=1;exitY=0;exitDx=0;exitDy=0;dashed=1;strokeWidth=2;labelBorderColor=none;fontColor=default;labelBackgroundColor=none;" parent="1" source="lB7tE4sDJ6YOISGpc0Tp-16" target="lB7tE4sDJ6YOISGpc0Tp-13" edge="1">
          <mxGeometry width="50" height="50" relative="1" as="geometry">
            <mxPoint x="432" y="492" as="sourcePoint" />
            <mxPoint x="548" y="-212" as="targetPoint" />
          </mxGeometry>
        </mxCell>
        <mxCell id="lB7tE4sDJ6YOISGpc0Tp-25" value="" style="endArrow=classic;html=1;rounded=0;entryX=0;entryY=1;entryDx=0;entryDy=0;exitX=1;exitY=0;exitDx=0;exitDy=0;dashed=1;strokeWidth=2;labelBorderColor=none;fontColor=default;labelBackgroundColor=none;" parent="1" source="lB7tE4sDJ6YOISGpc0Tp-17" target="lB7tE4sDJ6YOISGpc0Tp-13" edge="1">
          <mxGeometry width="50" height="50" relative="1" as="geometry">
            <mxPoint x="442" y="502" as="sourcePoint" />
            <mxPoint x="558" y="-202" as="targetPoint" />
          </mxGeometry>
        </mxCell>
        <mxCell id="lB7tE4sDJ6YOISGpc0Tp-40" style="rounded=0;orthogonalLoop=1;jettySize=auto;html=1;exitX=0.5;exitY=0.5;exitDx=0;exitDy=0;exitPerimeter=0;entryX=0;entryY=0.5;entryDx=0;entryDy=0;endArrow=none;endFill=0;labelBorderColor=none;fontColor=default;labelBackgroundColor=none;" parent="1" source="lB7tE4sDJ6YOISGpc0Tp-26" target="lB7tE4sDJ6YOISGpc0Tp-17" edge="1">
          <mxGeometry relative="1" as="geometry" />
        </mxCell>
        <mxCell id="lB7tE4sDJ6YOISGpc0Tp-26" value="Manager" style="shape=umlActor;verticalLabelPosition=bottom;verticalAlign=top;html=1;outlineConnect=0;fillColor=none;labelBorderColor=none;rounded=0;fontColor=default;labelBackgroundColor=none;" parent="1" vertex="1">
          <mxGeometry x="60" y="720" width="30" height="60" as="geometry" />
        </mxCell>
        <mxCell id="lB7tE4sDJ6YOISGpc0Tp-30" value="" style="endArrow=none;html=1;rounded=0;exitX=0.5;exitY=0.5;exitDx=0;exitDy=0;exitPerimeter=0;entryX=0;entryY=0.5;entryDx=0;entryDy=0;labelBorderColor=none;fontColor=default;labelBackgroundColor=none;" parent="1" source="lB7tE4sDJ6YOISGpc0Tp-26" target="lB7tE4sDJ6YOISGpc0Tp-4" edge="1">
          <mxGeometry width="50" height="50" relative="1" as="geometry">
            <mxPoint x="300" y="600" as="sourcePoint" />
            <mxPoint x="350" y="550" as="targetPoint" />
          </mxGeometry>
        </mxCell>
        <mxCell id="lB7tE4sDJ6YOISGpc0Tp-31" value="" style="endArrow=none;html=1;rounded=0;entryX=0;entryY=0.5;entryDx=0;entryDy=0;exitX=0.5;exitY=0.5;exitDx=0;exitDy=0;exitPerimeter=0;labelBorderColor=none;fontColor=default;labelBackgroundColor=none;" parent="1" source="lB7tE4sDJ6YOISGpc0Tp-2" target="lB7tE4sDJ6YOISGpc0Tp-15" edge="1">
          <mxGeometry width="50" height="50" relative="1" as="geometry">
            <mxPoint x="185" y="390" as="sourcePoint" />
            <mxPoint x="320" y="510" as="targetPoint" />
          </mxGeometry>
        </mxCell>
        <mxCell id="lB7tE4sDJ6YOISGpc0Tp-32" value="" style="endArrow=none;html=1;rounded=0;entryX=0;entryY=0.5;entryDx=0;entryDy=0;exitX=0.5;exitY=0.5;exitDx=0;exitDy=0;exitPerimeter=0;labelBorderColor=none;fontColor=default;labelBackgroundColor=none;" parent="1" source="lB7tE4sDJ6YOISGpc0Tp-2" target="lB7tE4sDJ6YOISGpc0Tp-16" edge="1">
          <mxGeometry width="50" height="50" relative="1" as="geometry">
            <mxPoint x="185" y="390" as="sourcePoint" />
            <mxPoint x="320" y="620" as="targetPoint" />
          </mxGeometry>
        </mxCell>
        <mxCell id="lB7tE4sDJ6YOISGpc0Tp-33" value="" style="endArrow=none;html=1;rounded=0;entryX=0;entryY=0.5;entryDx=0;entryDy=0;exitX=0.5;exitY=0.5;exitDx=0;exitDy=0;exitPerimeter=0;labelBorderColor=none;fontColor=default;labelBackgroundColor=none;" parent="1" source="lB7tE4sDJ6YOISGpc0Tp-2" target="lB7tE4sDJ6YOISGpc0Tp-17" edge="1">
          <mxGeometry width="50" height="50" relative="1" as="geometry">
            <mxPoint x="195" y="400" as="sourcePoint" />
            <mxPoint x="330" y="630" as="targetPoint" />
          </mxGeometry>
        </mxCell>
        <mxCell id="lB7tE4sDJ6YOISGpc0Tp-42" style="rounded=0;orthogonalLoop=1;jettySize=auto;html=1;exitX=0;exitY=0.5;exitDx=0;exitDy=0;entryX=1;entryY=0.5;entryDx=0;entryDy=0;endArrow=none;endFill=0;labelBorderColor=none;fontColor=default;labelBackgroundColor=none;" parent="1" source="lB7tE4sDJ6YOISGpc0Tp-41" target="lB7tE4sDJ6YOISGpc0Tp-4" edge="1">
          <mxGeometry relative="1" as="geometry" />
        </mxCell>
        <mxCell id="lB7tE4sDJ6YOISGpc0Tp-43" style="rounded=0;orthogonalLoop=1;jettySize=auto;html=1;exitX=0;exitY=0.5;exitDx=0;exitDy=0;endArrow=none;endFill=0;entryX=1;entryY=0.5;entryDx=0;entryDy=0;labelBorderColor=none;fontColor=default;labelBackgroundColor=none;" parent="1" source="lB7tE4sDJ6YOISGpc0Tp-41" target="lB7tE4sDJ6YOISGpc0Tp-15" edge="1">
          <mxGeometry relative="1" as="geometry">
            <mxPoint x="430" y="620" as="targetPoint" />
          </mxGeometry>
        </mxCell>
        <mxCell id="lB7tE4sDJ6YOISGpc0Tp-44" style="rounded=0;orthogonalLoop=1;jettySize=auto;html=1;exitX=0;exitY=0.5;exitDx=0;exitDy=0;entryX=1;entryY=0.5;entryDx=0;entryDy=0;endArrow=none;endFill=0;labelBorderColor=none;fontColor=default;labelBackgroundColor=none;" parent="1" source="lB7tE4sDJ6YOISGpc0Tp-41" target="lB7tE4sDJ6YOISGpc0Tp-16" edge="1">
          <mxGeometry relative="1" as="geometry" />
        </mxCell>
        <mxCell id="lB7tE4sDJ6YOISGpc0Tp-45" style="rounded=0;orthogonalLoop=1;jettySize=auto;html=1;exitX=0;exitY=0.5;exitDx=0;exitDy=0;entryX=1;entryY=0.5;entryDx=0;entryDy=0;endArrow=none;endFill=0;labelBorderColor=none;fontColor=default;labelBackgroundColor=none;" parent="1" source="lB7tE4sDJ6YOISGpc0Tp-41" target="lB7tE4sDJ6YOISGpc0Tp-17" edge="1">
          <mxGeometry relative="1" as="geometry" />
        </mxCell>
        <mxCell id="lB7tE4sDJ6YOISGpc0Tp-41" value="Service Center" style="rounded=0;whiteSpace=wrap;html=1;fillColor=none;labelBorderColor=none;fontColor=default;labelBackgroundColor=none;" parent="1" vertex="1">
          <mxGeometry x="690" y="560" width="120" height="60" as="geometry" />
        </mxCell>
      </root>
    </mxGraphModel>
  </diagram>
  <diagram id="f2Ezl69KBT27Aa2EGYEf" name="Conceptual Class Diagrams">
    <mxGraphModel dx="1313" dy="1997" grid="1" gridSize="10" guides="1" tooltips="1" connect="1" arrows="1" fold="1" page="1" pageScale="1" pageWidth="827" pageHeight="1169" math="0" shadow="0">
      <root>
        <mxCell id="0" />
        <mxCell id="1" parent="0" />
        <mxCell id="-g1dAo6-QH13Yxk8yOpn-10" style="rounded=0;orthogonalLoop=1;jettySize=auto;html=1;exitX=1;exitY=0.25;exitDx=0;exitDy=0;entryX=0;entryY=0.25;entryDx=0;entryDy=0;align=center;labelPosition=center;verticalLabelPosition=middle;verticalAlign=middle;endArrow=classic;endFill=1;horizontal=0;fontStyle=1" edge="1" parent="1" source="-g1dAo6-QH13Yxk8yOpn-3" target="-g1dAo6-QH13Yxk8yOpn-7">
          <mxGeometry relative="1" as="geometry" />
        </mxCell>
        <mxCell id="-g1dAo6-QH13Yxk8yOpn-19" value="Contains&amp;nbsp;" style="edgeLabel;html=1;align=center;verticalAlign=bottom;resizable=0;points=[];" vertex="1" connectable="0" parent="-g1dAo6-QH13Yxk8yOpn-10">
          <mxGeometry relative="1" as="geometry">
            <mxPoint as="offset" />
          </mxGeometry>
        </mxCell>
        <mxCell id="-g1dAo6-QH13Yxk8yOpn-59" style="rounded=0;orthogonalLoop=1;jettySize=auto;html=1;entryX=0.5;entryY=0;entryDx=0;entryDy=0;edgeStyle=orthogonalEdgeStyle;" edge="1" parent="1" target="-g1dAo6-QH13Yxk8yOpn-39">
          <mxGeometry relative="1" as="geometry">
            <mxPoint x="110" y="-280" as="sourcePoint" />
            <mxPoint x="1120" y="20" as="targetPoint" />
          </mxGeometry>
        </mxCell>
        <mxCell id="-g1dAo6-QH13Yxk8yOpn-63" value="increase" style="edgeLabel;html=1;align=center;verticalAlign=bottom;resizable=0;points=[];" vertex="1" connectable="0" parent="-g1dAo6-QH13Yxk8yOpn-59">
          <mxGeometry relative="1" as="geometry">
            <mxPoint as="offset" />
          </mxGeometry>
        </mxCell>
        <mxCell id="-g1dAo6-QH13Yxk8yOpn-3" value="Room Reservation" style="swimlane;fontStyle=0;childLayout=stackLayout;horizontal=1;startSize=30;horizontalStack=0;resizeParent=1;resizeParentMax=0;resizeLast=0;collapsible=1;marginBottom=0;whiteSpace=wrap;html=1;" vertex="1" parent="1">
          <mxGeometry x="60" y="180" width="140" height="60" as="geometry" />
        </mxCell>
        <mxCell id="-g1dAo6-QH13Yxk8yOpn-25" value="Room Reservation ID" style="text;strokeColor=none;fillColor=none;align=left;verticalAlign=middle;spacingLeft=4;spacingRight=4;overflow=hidden;points=[[0,0.5],[1,0.5]];portConstraint=eastwest;rotatable=0;whiteSpace=wrap;html=1;" vertex="1" parent="-g1dAo6-QH13Yxk8yOpn-3">
          <mxGeometry y="30" width="140" height="30" as="geometry" />
        </mxCell>
        <mxCell id="-g1dAo6-QH13Yxk8yOpn-31" style="edgeStyle=orthogonalEdgeStyle;rounded=0;orthogonalLoop=1;jettySize=auto;html=1;exitX=0.5;exitY=0;exitDx=0;exitDy=0;entryX=1;entryY=0.75;entryDx=0;entryDy=0;" edge="1" parent="1" source="-g1dAo6-QH13Yxk8yOpn-7" target="-g1dAo6-QH13Yxk8yOpn-23">
          <mxGeometry relative="1" as="geometry" />
        </mxCell>
        <mxCell id="-g1dAo6-QH13Yxk8yOpn-32" value="Query" style="edgeLabel;html=1;align=center;verticalAlign=bottom;resizable=0;points=[];" vertex="1" connectable="0" parent="-g1dAo6-QH13Yxk8yOpn-31">
          <mxGeometry x="0.2105" y="-1" relative="1" as="geometry">
            <mxPoint as="offset" />
          </mxGeometry>
        </mxCell>
        <mxCell id="-g1dAo6-QH13Yxk8yOpn-7" value="Guest" style="swimlane;fontStyle=0;childLayout=stackLayout;horizontal=1;startSize=30;horizontalStack=0;resizeParent=1;resizeParentMax=0;resizeLast=0;collapsible=1;marginBottom=0;whiteSpace=wrap;html=1;" vertex="1" parent="1">
          <mxGeometry x="600" y="160" width="140" height="150" as="geometry" />
        </mxCell>
        <mxCell id="-g1dAo6-QH13Yxk8yOpn-8" value="ID" style="text;strokeColor=none;fillColor=none;align=left;verticalAlign=middle;spacingLeft=4;spacingRight=4;overflow=hidden;points=[[0,0.5],[1,0.5]];portConstraint=eastwest;rotatable=0;whiteSpace=wrap;html=1;" vertex="1" parent="-g1dAo6-QH13Yxk8yOpn-7">
          <mxGeometry y="30" width="140" height="30" as="geometry" />
        </mxCell>
        <mxCell id="-g1dAo6-QH13Yxk8yOpn-17" value="Phone Number" style="text;strokeColor=none;fillColor=none;align=left;verticalAlign=middle;spacingLeft=4;spacingRight=4;overflow=hidden;points=[[0,0.5],[1,0.5]];portConstraint=eastwest;rotatable=0;whiteSpace=wrap;html=1;" vertex="1" parent="-g1dAo6-QH13Yxk8yOpn-7">
          <mxGeometry y="60" width="140" height="30" as="geometry" />
        </mxCell>
        <mxCell id="-g1dAo6-QH13Yxk8yOpn-21" value="Email" style="text;strokeColor=none;fillColor=none;align=left;verticalAlign=middle;spacingLeft=4;spacingRight=4;overflow=hidden;points=[[0,0.5],[1,0.5]];portConstraint=eastwest;rotatable=0;whiteSpace=wrap;html=1;" vertex="1" parent="-g1dAo6-QH13Yxk8yOpn-7">
          <mxGeometry y="90" width="140" height="30" as="geometry" />
        </mxCell>
        <mxCell id="-g1dAo6-QH13Yxk8yOpn-22" value="Name" style="text;strokeColor=none;fillColor=none;align=left;verticalAlign=middle;spacingLeft=4;spacingRight=4;overflow=hidden;points=[[0,0.5],[1,0.5]];portConstraint=eastwest;rotatable=0;whiteSpace=wrap;html=1;" vertex="1" parent="-g1dAo6-QH13Yxk8yOpn-7">
          <mxGeometry y="120" width="140" height="30" as="geometry" />
        </mxCell>
        <mxCell id="-g1dAo6-QH13Yxk8yOpn-16" value="1...*" style="text;html=1;align=center;verticalAlign=middle;resizable=0;points=[];autosize=1;strokeColor=none;fillColor=none;" vertex="1" parent="1">
          <mxGeometry x="200" y="170" width="40" height="30" as="geometry" />
        </mxCell>
        <mxCell id="-g1dAo6-QH13Yxk8yOpn-20" value="1...*" style="text;html=1;align=center;verticalAlign=middle;resizable=0;points=[];autosize=1;strokeColor=none;fillColor=none;" vertex="1" parent="1">
          <mxGeometry x="560" y="170" width="40" height="30" as="geometry" />
        </mxCell>
        <mxCell id="-g1dAo6-QH13Yxk8yOpn-29" style="edgeStyle=orthogonalEdgeStyle;rounded=0;orthogonalLoop=1;jettySize=auto;html=1;exitX=0;exitY=0.75;exitDx=0;exitDy=0;entryX=0.5;entryY=0;entryDx=0;entryDy=0;" edge="1" parent="1" source="-g1dAo6-QH13Yxk8yOpn-23" target="-g1dAo6-QH13Yxk8yOpn-3">
          <mxGeometry relative="1" as="geometry" />
        </mxCell>
        <mxCell id="-g1dAo6-QH13Yxk8yOpn-30" value="contains" style="edgeLabel;html=1;align=center;verticalAlign=bottom;resizable=0;points=[];" vertex="1" connectable="0" parent="-g1dAo6-QH13Yxk8yOpn-29">
          <mxGeometry x="-0.3993" y="-1" relative="1" as="geometry">
            <mxPoint as="offset" />
          </mxGeometry>
        </mxCell>
        <mxCell id="-g1dAo6-QH13Yxk8yOpn-23" value="Room Reservation History" style="swimlane;fontStyle=0;childLayout=stackLayout;horizontal=1;startSize=30;horizontalStack=0;resizeParent=1;resizeParentMax=0;resizeLast=0;collapsible=1;marginBottom=0;whiteSpace=wrap;html=1;" vertex="1" parent="1">
          <mxGeometry x="320" y="20" width="140" height="60" as="geometry" />
        </mxCell>
        <mxCell id="-g1dAo6-QH13Yxk8yOpn-34" style="edgeStyle=orthogonalEdgeStyle;rounded=0;orthogonalLoop=1;jettySize=auto;html=1;exitX=0.5;exitY=0;exitDx=0;exitDy=0;endArrow=none;endFill=0;startArrow=classic;startFill=1;" edge="1" parent="1" target="-g1dAo6-QH13Yxk8yOpn-3">
          <mxGeometry relative="1" as="geometry">
            <mxPoint x="130" y="320" as="sourcePoint" />
          </mxGeometry>
        </mxCell>
        <mxCell id="-g1dAo6-QH13Yxk8yOpn-35" value="1...*" style="text;html=1;align=center;verticalAlign=middle;resizable=0;points=[];autosize=1;strokeColor=none;fillColor=none;" vertex="1" parent="1">
          <mxGeometry x="130" y="150" width="40" height="30" as="geometry" />
        </mxCell>
        <mxCell id="-g1dAo6-QH13Yxk8yOpn-36" value="1...*" style="text;html=1;align=center;verticalAlign=middle;resizable=0;points=[];autosize=1;strokeColor=none;fillColor=none;" vertex="1" parent="1">
          <mxGeometry x="280" y="35" width="40" height="30" as="geometry" />
        </mxCell>
        <mxCell id="-g1dAo6-QH13Yxk8yOpn-37" value="1" style="text;html=1;align=center;verticalAlign=middle;resizable=0;points=[];autosize=1;strokeColor=none;fillColor=none;" vertex="1" parent="1">
          <mxGeometry x="465" y="35" width="30" height="30" as="geometry" />
        </mxCell>
        <mxCell id="-g1dAo6-QH13Yxk8yOpn-38" value="1...*" style="text;html=1;align=center;verticalAlign=middle;resizable=0;points=[];autosize=1;strokeColor=none;fillColor=none;" vertex="1" parent="1">
          <mxGeometry x="670" y="130" width="40" height="30" as="geometry" />
        </mxCell>
        <mxCell id="-g1dAo6-QH13Yxk8yOpn-39" value="Point" style="swimlane;fontStyle=0;childLayout=stackLayout;horizontal=1;startSize=30;horizontalStack=0;resizeParent=1;resizeParentMax=0;resizeLast=0;collapsible=1;marginBottom=0;whiteSpace=wrap;html=1;" vertex="1" parent="1">
          <mxGeometry x="1040" y="155" width="140" height="60" as="geometry" />
        </mxCell>
        <mxCell id="-g1dAo6-QH13Yxk8yOpn-40" value="Value" style="text;strokeColor=none;fillColor=none;align=left;verticalAlign=middle;spacingLeft=4;spacingRight=4;overflow=hidden;points=[[0,0.5],[1,0.5]];portConstraint=eastwest;rotatable=0;whiteSpace=wrap;html=1;" vertex="1" parent="-g1dAo6-QH13Yxk8yOpn-39">
          <mxGeometry y="30" width="140" height="30" as="geometry" />
        </mxCell>
        <mxCell id="-g1dAo6-QH13Yxk8yOpn-46" style="edgeStyle=orthogonalEdgeStyle;rounded=0;orthogonalLoop=1;jettySize=auto;html=1;exitX=0;exitY=0.25;exitDx=0;exitDy=0;entryX=1;entryY=0.5;entryDx=0;entryDy=0;" edge="1" parent="1" source="-g1dAo6-QH13Yxk8yOpn-44" target="-g1dAo6-QH13Yxk8yOpn-22">
          <mxGeometry relative="1" as="geometry" />
        </mxCell>
        <mxCell id="-g1dAo6-QH13Yxk8yOpn-49" value="Describe" style="edgeLabel;html=1;align=center;verticalAlign=bottom;resizable=0;points=[];" vertex="1" connectable="0" parent="-g1dAo6-QH13Yxk8yOpn-46">
          <mxGeometry relative="1" as="geometry">
            <mxPoint as="offset" />
          </mxGeometry>
        </mxCell>
        <mxCell id="-g1dAo6-QH13Yxk8yOpn-44" value="VIP Level" style="swimlane;fontStyle=0;childLayout=stackLayout;horizontal=1;startSize=30;horizontalStack=0;resizeParent=1;resizeParentMax=0;resizeLast=0;collapsible=1;marginBottom=0;whiteSpace=wrap;html=1;" vertex="1" parent="1">
          <mxGeometry x="1130" y="480" width="140" height="60" as="geometry" />
        </mxCell>
        <mxCell id="-g1dAo6-QH13Yxk8yOpn-45" value="Value" style="text;strokeColor=none;fillColor=none;align=left;verticalAlign=middle;spacingLeft=4;spacingRight=4;overflow=hidden;points=[[0,0.5],[1,0.5]];portConstraint=eastwest;rotatable=0;whiteSpace=wrap;html=1;" vertex="1" parent="-g1dAo6-QH13Yxk8yOpn-44">
          <mxGeometry y="30" width="140" height="30" as="geometry" />
        </mxCell>
        <mxCell id="-g1dAo6-QH13Yxk8yOpn-47" style="edgeStyle=orthogonalEdgeStyle;rounded=0;orthogonalLoop=1;jettySize=auto;html=1;exitX=0;exitY=0.25;exitDx=0;exitDy=0;entryX=1.037;entryY=0.061;entryDx=0;entryDy=0;entryPerimeter=0;" edge="1" parent="1" source="-g1dAo6-QH13Yxk8yOpn-39" target="-g1dAo6-QH13Yxk8yOpn-7">
          <mxGeometry relative="1" as="geometry" />
        </mxCell>
        <mxCell id="-g1dAo6-QH13Yxk8yOpn-48" value="Describe" style="edgeLabel;html=1;align=center;verticalAlign=bottom;resizable=0;points=[];" vertex="1" connectable="0" parent="-g1dAo6-QH13Yxk8yOpn-47">
          <mxGeometry relative="1" as="geometry">
            <mxPoint as="offset" />
          </mxGeometry>
        </mxCell>
        <mxCell id="-g1dAo6-QH13Yxk8yOpn-50" value="1" style="text;html=1;align=center;verticalAlign=middle;resizable=0;points=[];autosize=1;strokeColor=none;fillColor=none;" vertex="1" parent="1">
          <mxGeometry x="1005" y="140" width="30" height="30" as="geometry" />
        </mxCell>
        <mxCell id="-g1dAo6-QH13Yxk8yOpn-51" value="1" style="text;html=1;align=center;verticalAlign=middle;resizable=0;points=[];autosize=1;strokeColor=none;fillColor=none;" vertex="1" parent="1">
          <mxGeometry x="1100" y="460" width="30" height="30" as="geometry" />
        </mxCell>
        <mxCell id="-g1dAo6-QH13Yxk8yOpn-52" value="1" style="text;html=1;align=center;verticalAlign=middle;resizable=0;points=[];autosize=1;strokeColor=none;fillColor=none;" vertex="1" parent="1">
          <mxGeometry x="740" y="140" width="30" height="30" as="geometry" />
        </mxCell>
        <mxCell id="-g1dAo6-QH13Yxk8yOpn-53" value="1" style="text;html=1;align=center;verticalAlign=middle;resizable=0;points=[];autosize=1;strokeColor=none;fillColor=none;" vertex="1" parent="1">
          <mxGeometry x="740" y="270" width="30" height="30" as="geometry" />
        </mxCell>
        <mxCell id="-g1dAo6-QH13Yxk8yOpn-54" style="edgeStyle=orthogonalEdgeStyle;rounded=0;orthogonalLoop=1;jettySize=auto;html=1;exitX=1;exitY=0.25;exitDx=0;exitDy=0;entryX=0.5;entryY=0;entryDx=0;entryDy=0;" edge="1" parent="1" source="-g1dAo6-QH13Yxk8yOpn-39" target="-g1dAo6-QH13Yxk8yOpn-44">
          <mxGeometry relative="1" as="geometry">
            <mxPoint x="1180" y="100" as="sourcePoint" />
            <mxPoint x="1230" y="460" as="targetPoint" />
          </mxGeometry>
        </mxCell>
        <mxCell id="-g1dAo6-QH13Yxk8yOpn-55" value="Consume points to incrase level" style="edgeLabel;html=1;align=center;verticalAlign=middle;resizable=0;points=[];" vertex="1" connectable="0" parent="-g1dAo6-QH13Yxk8yOpn-54">
          <mxGeometry x="0.1442" y="4" relative="1" as="geometry">
            <mxPoint as="offset" />
          </mxGeometry>
        </mxCell>
        <mxCell id="-g1dAo6-QH13Yxk8yOpn-56" value="1" style="text;html=1;align=center;verticalAlign=middle;resizable=0;points=[];autosize=1;strokeColor=none;fillColor=none;" vertex="1" parent="1">
          <mxGeometry x="1180" y="140" width="30" height="30" as="geometry" />
        </mxCell>
        <mxCell id="-g1dAo6-QH13Yxk8yOpn-57" value="1" style="text;html=1;align=center;verticalAlign=middle;resizable=0;points=[];autosize=1;strokeColor=none;fillColor=none;" vertex="1" parent="1">
          <mxGeometry x="1200" y="450" width="30" height="30" as="geometry" />
        </mxCell>
      </root>
    </mxGraphModel>
  </diagram>
</mxfile>
